<svg id="Layer_1" data-name="Layer 1" xmlns="http://www.w3.org/2000/svg" xmlns:xlink="http://www.w3.org/1999/xlink" viewBox="0 0 640 512"><defs><clipPath id="clip-path" transform="translate(127.99 0)"><rect width="384.01" height="512" style="fill:none"/></clipPath></defs><g style="clip-path:url(#clip-path)"><path d="M496,448H384V50.8c0-28-21.53-50.8-48-50.8H48C21.53,0,0,22.78,0,50.8V448H-112a16,16,0,0,0-16,16v32a16,16,0,0,0,16,16H496a16,16,0,0,0,16-16V464A16,16,0,0,0,496,448ZM288,288a32,32,0,1,1,32-32A32,32,0,0,1,288,288Z" transform="translate(127.99 0)"/></g></svg>